<svg xmlns="http://www.w3.org/2000/svg" version="1.0" width="500.000000" height="500.000000" preserveAspectRatio="xMidYMid meet" style=""><rect id="backgroundrect" width="100%" height="100%" x="0" y="0" fill="none" stroke="none"/>
<metadata>
Created by potrace 1.16, written by Peter Selinger 2001-2019
</metadata>

<g class="currentLayer" style=""><title>Layer 1</title><g transform="translate(0,500) scale(0.10000000149011612,-0.10000000149011612) " fill="#ff0000" stroke="none" id="svg_1" class="selected" fill-opacity="1">
<path d="M3815 3431 c-51 -23 -111 -89 -124 -138 -31 -111 -2 -169 166 -333 l127 -125 -120 -3 c-65 -1 -879 -3 -1809 -5 l-1690 -2 -40 -22 c-77 -41 -119 -108 -119 -194 -1 -82 34 -145 104 -186 l54 -33 1808 0 c994 0 1808 -3 1808 -7 0 -4 -63 -70 -139 -148 -145 -147 -161 -172 -161 -255 0 -48 40 -130 79 -163 18 -15 57 -34 87 -43 46 -13 64 -14 107 -4 50 12 63 24 400 359 192 190 357 363 368 383 26 50 25 138 -1 192 -12 27 -140 161 -362 382 -289 287 -349 342 -384 352 -58 17 -113 14 -159 -7z" id="svg_2" fill="#ff0000" fill-opacity="1"/>
</g></g></svg>