<svg xmlns:dc="http://purl.org/dc/elements/1.1/" xmlns:cc="http://creativecommons.org/ns#" xmlns:rdf="http://www.w3.org/1999/02/22-rdf-syntax-ns#" xmlns:svg="http://www.w3.org/2000/svg" xmlns="http://www.w3.org/2000/svg" xmlns:sodipodi="http://sodipodi.sourceforge.net/DTD/sodipodi-0.dtd" xmlns:inkscape="http://www.inkscape.org/namespaces/inkscape" width="600" height="600" sodipodi:version="0.32" inkscape:version="0.48.3.1 r9886" version="1.0" sodipodi:docname="withdrawn.svg" inkscape:output_extension="org.inkscape.output.svg.inkscape"><rect id="backgroundrect" width="100%" height="100%" x="0" y="0" fill="none" stroke="none"/>
  <defs id="defs2159"/>
  <sodipodi:namedview id="base" pagecolor="#ffffff" bordercolor="#666666" borderopacity="1.0" gridtolerance="10000" guidetolerance="10" objecttolerance="10" inkscape:pageopacity="0.0" inkscape:pageshadow="2" inkscape:zoom="0.24748738" inkscape:cx="-621.21948" inkscape:cy="-59.183869" inkscape:document-units="px" inkscape:current-layer="layer1" width="600px" height="600px" inkscape:window-width="1920" inkscape:window-height="980" inkscape:window-x="-3" inkscape:window-y="42" showgrid="false" inkscape:window-maximized="1"/>
  <metadata id="metadata2162">
    <rdf:RDF>
      <cc:Work rdf:about="">
        <dc:format>image/svg+xml</dc:format>
        <dc:type rdf:resource="http://purl.org/dc/dcmitype/StillImage"/>
      </cc:Work>
    </rdf:RDF>
  </metadata>
  
<g class="currentLayer" style=""><title>Layer 1</title><g inkscape:label="Layer 1" inkscape:groupmode="layer" id="layer1" class="selected" fill="#ff0000" fill-opacity="1" stroke="none">
    <path inkscape:connector-curvature="0" d="M 100.89298,527.7718 C 131.31929,454.85311 198.52168,394.45284 215.2521,317.19243 178.84904,236.41882 110.36456,168.26625 82.773667,77.600546 c 9.190226,-31.703341 76.972823,-4.066269 96.407083,2.589096 55.9258,26.243458 78.28307,91.706378 108.53248,141.158728 46.15331,-48.66811 76.8913,-170.725471 139.34273,-190.704732 26.31388,8.556766 111.27841,29.471064 85.28633,64.66349 -54.67891,70.068112 -105.90194,143.274402 -141.05106,223.833852 34.88074,75.13076 95.91447,136.94368 130.16177,217.4639 -1.7395,38.043 -75.92511,18.39563 -102.23898,9.83885 -39.31497,-37.40447 -61.63906,-89.20367 -99.87615,-126.48146 -42.06597,27.83922 -55.46314,146.47083 -104.98189,149.39283 -16.42176,0.25541 -88.39027,-38.25511 -94.00195,-41.64665" style="" id="X" fill="#ff0000" fill-opacity="1" stroke="none"/>
  </g></g></svg>