<svg id="Capa_1" enable-background="new 0 0 512 512" height="512" viewBox="0 0 512 512" width="512" xmlns="http://www.w3.org/2000/svg"><g><g fill="#020288"><path d="m502 0h-61.652c-5.523 0-10 4.478-10 10v61.652c0 5.522 4.477 10 10 10h61.652c5.523 0 10-4.478 10-10v-61.652c0-5.522-4.477-10-10-10zm-10 61.652h-41.652v-41.652h41.652z"/><path d="m71.652 0h-61.652c-5.523 0-10 4.478-10 10v61.652c0 5.522 4.477 10 10 10h61.652c5.523 0 10-4.478 10-10v-61.652c0-5.522-4.477-10-10-10zm-10 61.652h-41.652v-41.652h41.652z"/><path d="m133.979 30.826h-20.822c-5.523 0-10 4.478-10 10s4.477 10 10 10h20.822c5.523 0 10-4.478 10-10s-4.478-10-10-10z"/><path d="m200.195 30.826h-20.822c-5.523 0-10 4.478-10 10s4.477 10 10 10h20.822c5.523 0 10-4.478 10-10s-4.477-10-10-10z"/><path d="m266.411 30.826h-20.822c-5.523 0-10 4.478-10 10s4.477 10 10 10h20.822c5.523 0 10-4.478 10-10s-4.477-10-10-10z"/><path d="m332.627 30.826h-20.822c-5.523 0-10 4.478-10 10s4.477 10 10 10h20.822c5.523 0 10-4.478 10-10s-4.477-10-10-10z"/><path d="m398.844 30.826h-20.822c-5.523 0-10 4.478-10 10s4.477 10 10 10h20.822c5.523 0 10-4.478 10-10s-4.477-10-10-10z"/><path d="m502 430.348h-61.652c-5.523 0-10 4.478-10 10v61.652c0 5.522 4.477 10 10 10h61.652c5.523 0 10-4.478 10-10v-61.652c0-5.523-4.477-10-10-10zm-10 61.652h-41.652v-41.652h41.652z"/><path d="m71.652 430.348h-61.652c-5.523 0-10 4.478-10 10v61.652c0 5.522 4.477 10 10 10h61.652c5.523 0 10-4.478 10-10v-61.652c0-5.523-4.477-10-10-10zm-10 61.652h-41.652v-41.652h41.652z"/><path d="m133.979 461.174h-20.822c-5.523 0-10 4.478-10 10s4.477 10 10 10h20.822c5.523 0 10-4.478 10-10s-4.478-10-10-10z"/><path d="m200.195 461.174h-20.822c-5.523 0-10 4.478-10 10s4.477 10 10 10h20.822c5.523 0 10-4.478 10-10s-4.477-10-10-10z"/><path d="m266.411 461.174h-20.822c-5.523 0-10 4.478-10 10s4.477 10 10 10h20.822c5.523 0 10-4.478 10-10s-4.477-10-10-10z"/><path d="m332.627 461.174h-20.822c-5.523 0-10 4.478-10 10s4.477 10 10 10h20.822c5.523 0 10-4.478 10-10s-4.477-10-10-10z"/><path d="m398.844 461.174h-20.822c-5.523 0-10 4.478-10 10s4.477 10 10 10h20.822c5.523 0 10-4.478 10-10s-4.477-10-10-10z"/><path d="m471.174 143.979c5.523 0 10-4.478 10-10v-20.822c0-5.522-4.477-10-10-10s-10 4.478-10 10v20.822c0 5.522 4.477 10 10 10z"/><path d="m461.174 200.195c0 5.522 4.477 10 10 10s10-4.478 10-10v-20.822c0-5.522-4.477-10-10-10s-10 4.478-10 10z"/><path d="m461.174 266.411c0 5.522 4.477 10 10 10s10-4.478 10-10v-20.822c0-5.522-4.477-10-10-10s-10 4.478-10 10z"/><path d="m461.174 332.627c0 5.522 4.477 10 10 10s10-4.478 10-10v-20.822c0-5.522-4.477-10-10-10s-10 4.478-10 10z"/><path d="m461.174 398.844c0 5.522 4.477 10 10 10s10-4.478 10-10v-20.822c0-5.522-4.477-10-10-10s-10 4.478-10 10z"/><path d="m40.826 143.979c5.523 0 10-4.478 10-10v-20.822c0-5.522-4.477-10-10-10s-10 4.478-10 10v20.822c0 5.522 4.477 10 10 10z"/><path d="m30.826 200.195c0 5.522 4.477 10 10 10s10-4.478 10-10v-20.822c0-5.522-4.477-10-10-10s-10 4.478-10 10z"/><path d="m30.826 266.411c0 5.522 4.477 10 10 10s10-4.478 10-10v-20.822c0-5.522-4.477-10-10-10s-10 4.478-10 10z"/><path d="m30.826 332.627c0 5.522 4.477 10 10 10s10-4.478 10-10v-20.822c0-5.522-4.477-10-10-10s-10 4.478-10 10z"/><path d="m30.826 398.844c0 5.522 4.477 10 10 10s10-4.478 10-10v-20.822c0-5.522-4.477-10-10-10s-10 4.478-10 10z"/></g><g><path d="m133.583 102.997v82.474h49.596v-32.879h48.023v206.816h-52.619v49.595h154.834v-49.595h-52.619v-206.816h48.023v32.879h49.596v-82.474z" fill="#b2f0fb"/></g></g></svg>